HIERARCHY
ROOT Hips
{
  OFFSET 0 0 0
  CHANNELS 6 Xposition Yposition Zposition Zrotation Xrotation Yrotation
  JOINT Spine
  {
    OFFSET 0 10.1816 0.131521
    CHANNELS 3 Zrotation Xrotation Yrotation
    JOINT Spine1
    {
      OFFSET 0 10.0835 -1.0008
      CHANNELS 3 Zrotation Xrotation Yrotation
      JOINT Spine2
      {
        OFFSET 0 9.10001 -1.37342
        CHANNELS 3 Zrotation Xrotation Yrotation
        JOINT Neck
        {
          OFFSET 0 16.6717 -2.51617
          CHANNELS 3 Zrotation Xrotation Yrotation
          JOINT Head
          {
            OFFSET 0 9.61788 1.68501
            CHANNELS 3 Zrotation Xrotation Yrotation
            End Site
            {
              OFFSET 0 0 0
            }
          }
        }
        JOINT LeftShoulder
        {
          OFFSET 4.57045 10.946 -2.62799
          CHANNELS 3 Zrotation Xrotation Yrotation
          JOINT LeftArm
          {
            OFFSET 10.5924 -0.524583 -2.23212
            CHANNELS 3 Zrotation Xrotation Yrotation
            JOINT LeftForeArm
            {
              OFFSET 27.8415 -8.94286e-05 3.74589e-05
              CHANNELS 3 Zrotation Xrotation Yrotation
              JOINT LeftHand
              {
                OFFSET 28.3288 -1.74407e-05 3.78045e-05
                CHANNELS 3 Zrotation Xrotation Yrotation
                End Site
                {
                  OFFSET 0 0 0
                }
              }
            }
          }
        }
        JOINT RightShoulder
        {
          OFFSET -4.56997 10.9462 -2.62802
          CHANNELS 3 Zrotation Xrotation Yrotation
          JOINT RightArm
          {
            OFFSET -10.5928 -0.524798 -2.2321
            CHANNELS 3 Zrotation Xrotation Yrotation
            JOINT RightForeArm
            {
              OFFSET -27.8415 -3.30792e-05 1.16763e-05
              CHANNELS 3 Zrotation Xrotation Yrotation
              JOINT RightHand
              {
                OFFSET -28.3288 0 5.5816e-05
                CHANNELS 3 Zrotation Xrotation Yrotation
                End Site
                {
                  OFFSET 0 0 0
                }
              }
            }
          }
        }
      }
    }
  }
  JOINT LeftUpLeg
  {
    OFFSET 8.20778 -6.75171 -1.59956
    CHANNELS 3 Zrotation Xrotation Yrotation
    JOINT LeftLeg
    {
      OFFSET 0 -44.3705 0.284643
      CHANNELS 3 Zrotation Xrotation Yrotation
      JOINT LeftFoot
      {
        OFFSET 0 -44.4279 -2.98219
        CHANNELS 3 Zrotation Xrotation Yrotation
        JOINT LeftToeBase
        {
          OFFSET 0 -8.72867 10.7106
          CHANNELS 3 Zrotation Xrotation Yrotation
          End Site
          {
            OFFSET 0 0 0
          }
        }
      }
    }
  }
  JOINT RightUpLeg
  {
    OFFSET -8.2078 -6.75166 -1.59956
    CHANNELS 3 Zrotation Xrotation Yrotation
    JOINT RightLeg
    {
      OFFSET 0 -44.3705 0.286156
      CHANNELS 3 Zrotation Xrotation Yrotation
      JOINT RightFoot
      {
        OFFSET 0 -44.4277 -2.98379
        CHANNELS 3 Zrotation Xrotation Yrotation
        JOINT RightToeBase
        {
          OFFSET 0 -8.72867 10.7106
          CHANNELS 3 Zrotation Xrotation Yrotation
          End Site
          {
            OFFSET 0 0 0
          }
        }
      }
    }
  }
}
MOTION
Frames:	8
Frame Time:	0.0333333
-1.18455 92.6058 1.21196 -0.007235666666666667 -0.009300333333333334 0.09997666666666666 0.000000 -0.000001 0.000000 0.000000 -0.000000 0.000000 0.000000 -0.000000 0.000000 -0.000000 -0.000000 -0.000000 -0.000000 -0.000001 -0.000000 -0.000004 -0.000002 0.000001 0.000015 -0.000003 -0.000002 -0.000009 -0.000010 -0.000004 0.000001 -0.000001 -0.000001 0.000012 0.000004 -0.000000 -0.000007 -0.000001 -0.000002 -0.000016 -0.000006 0.000005 0.000005 -0.000000 0.000001 0.000014 0.000009 -0.000202 -0.000015 -0.000026 0.000202 -0.000000 0.000000 -0.000000 -0.000000 0.000002 -0.000000 0.000005 0.000008 -0.000013 -0.000001 -0.000012 0.000013 -0.000000 -0.000003 -0.000000 -0.000000 0.000000 -0.000000 
-0.929989 92.2539 1.94518 -0.004827333333333334 -0.008663666666666667 0.09946866666666666 0.000001 -0.000000 -0.000001 0.000000 -0.000000 -0.000000 -0.000001 0.000000 -0.000000 0.000000 0.000001 -0.000002 -14.104995 6.522095 -0.015592 28.068329 7.028040 15.533334 -61.664894 -23.490552 11.350084 -41.647270 -37.651056 -14.724209 -0.000003 -0.000003 0.000002 -31.600471 4.728779 22.093589 66.976869 -39.536106 -19.853632 21.093403 -15.730405 12.844096 -0.000000 -0.000001 0.000003 12.512710 -20.106229 0.866614 7.610700 21.734278 -0.751885 0.000006 -0.000003 0.000007 0.000001 -0.000001 -0.000001 -3.865372 -0.381340 -0.272152 3.714244 31.456453 -0.367815 -0.000001 0.000000 -0.000002 0.000003 0.000000 -0.000002 
-0.635223 91.9035 2.77291 -0.004979666666666666 -0.008543333333333333 0.09911066666666667 0.000001 -0.000000 0.000004 0.000000 -0.000000 0.000006 0.000000 -0.000000 0.000003 0.000000 0.000001 0.000000 -11.802210 5.381371 -0.011029 27.943882 7.250977 16.781394 -62.171565 -20.495229 11.168935 -41.450434 -37.757047 -14.830560 -0.000005 -0.000004 -0.000004 -31.970422 4.868190 22.408809 67.752936 -35.611059 -19.019650 23.056970 -17.441281 13.328477 -0.000001 0.000000 -0.000001 12.355917 -21.367137 0.851083 6.442675 17.736372 -0.637000 -0.000000 -0.000002 -0.000001 -0.000002 -0.000002 -0.000001 -2.666236 2.816468 -0.194930 3.716939 29.140688 -0.368084 0.000001 0.000000 -0.000000 0.000001 -0.000001 0.000000 
-0.260761 91.4258 3.7916 -0.00484 -0.008446 0.09942266666666666 0.000000 0.000000 0.000005 0.000000 0.000000 0.000004 0.000000 -0.000000 0.000004 0.000000 -0.000000 0.000001 -12.250583 4.757357 -0.010529 27.525712 6.657617 14.696405 -63.828534 -20.778559 11.826179 -43.429519 -39.553199 -14.199324 -0.000002 0.000000 -0.000003 -30.617395 4.298619 20.635752 69.470059 -33.502122 -19.034334 25.007717 -19.743466 14.148019 0.000002 -0.000001 -0.000001 12.656370 -20.891220 0.874444 7.091438 16.818181 -0.700846 -0.000002 0.000002 0.000002 -0.000001 0.000001 0.000000 -2.646554 0.116396 -0.181012 3.934382 29.736912 -0.389583 -0.000001 -0.000005 0.000001 0.000001 0.000003 0.000000 
0.195806 90.8418 5.05827 -0.004755333333333333 -0.008412666666666666 0.09977233333333334 0.000000 0.000000 -0.000001 -0.000000 -0.000000 -0.000002 -0.000000 -0.000000 0.000002 0.000001 -0.000000 0.000000 -12.442271 3.817948 -0.009142 27.610208 6.783039 14.906741 -64.396772 -21.016589 11.975695 -43.295968 -40.705018 -14.504706 -0.000004 -0.000002 0.000000 -30.788406 4.440536 21.538354 70.209270 -35.211060 -20.057284 24.870090 -19.183443 13.821409 -0.000003 0.000002 -0.000001 12.969716 -20.935711 0.897829 7.480512 20.541355 -0.739094 0.000000 -0.000003 -0.000002 0.000000 0.000001 -0.000002 -4.249853 -2.125021 -0.293556 3.916765 32.494789 -0.387837 -0.000000 0.000003 -0.000000 0.000001 -0.000005 -0.000003 
0.734569 90.1627 6.65374 -0.0047536666666666665 -0.008409333333333333 0.09975033333333333 -0.000000 -0.000000 -0.000000 0.000000 -0.000000 -0.000000 -0.000000 0.000000 0.000001 -0.000000 0.000000 0.000000 -12.447080 3.693146 -0.008917 27.621329 6.777955 14.900418 -64.421989 -21.281493 12.019013 -43.295172 -40.250479 -14.385862 0.000003 -0.000003 0.000003 -30.853085 4.458780 21.740207 70.210971 -35.672674 -20.248711 24.803157 -18.820842 13.624433 0.000002 0.000001 0.000001 13.011871 -20.865825 0.901216 7.584608 20.590855 -0.749328 0.000000 -0.000003 -0.000001 -0.000001 -0.000000 -0.000001 -4.337544 -2.238558 -0.299749 3.826336 32.608843 -0.378894 0.000001 -0.000002 -0.000001 -0.000001 0.000000 0.000003 
1.31597 89.4807 8.62979 -0.005071999999999999 -0.008539 0.09877666666666667 -0.000000 -0.000000 -0.000002 0.000000 0.000000 0.000000 -0.000000 -0.000000 0.000002 -0.000000 -0.000000 0.000002 -11.933718 3.502213 -0.008020 27.794948 6.682605 14.991365 -63.582224 -20.919990 11.809022 -41.577977 -39.358579 -15.220674 -0.000000 -0.000001 -0.000002 -30.757817 4.219457 20.865792 68.917169 -33.530102 -18.852866 24.217409 -19.284056 14.116754 -0.000004 0.000002 0.000002 12.985403 -19.818074 0.901211 7.071167 18.667008 -0.698858 0.000001 0.000002 0.000001 0.000002 -0.000001 -0.000001 -3.632194 0.046716 -0.255925 3.224952 30.708722 -0.319407 -0.000001 0.000000 -0.000001 0.000001 -0.000000 0.000002 
1.88621 88.9136 10.9932 -0.005078666666666667 -0.008696333333333334 0.09899533333333332 0.000000 -0.000001 -0.000001 0.000000 0.000000 -0.000001 0.000000 -0.000000 -0.000001 0.000001 0.000000 -0.000001 -13.119367 5.131755 -0.012195 28.372205 7.156687 16.069383 -62.655764 -22.586674 11.564139 -40.049729 -34.548005 -14.656181 0.000004 -0.000001 -0.000006 -31.817439 4.736017 22.467328 68.060205 -39.152495 -20.478574 20.823452 -14.001965 11.710184 0.000003 -0.000000 0.000002 12.803189 -19.017436 0.891247 7.905363 20.070752 -0.780823 0.000002 -0.000002 -0.000003 0.000003 -0.000001 0.000001 -4.265604 -0.939372 -0.300089 2.831465 29.984790 -0.280462 0.000000 0.000003 -0.000000 0.000001 -0.000000 -0.000001 
